# xmcd
#
# Track frame offsets: 
#        150
#        11377
#        23779
#        36333
#        46324
#        55935
#        66726
#        80307
#        96207
#        108956
#        118335
#        130597
#        141753
#        153338
#        164206
#        174834
#        186886
#        199235
#        211299
#        224348
#        246096
#        259482
#
# Disc length: 3634 seconds
#
# Revision: 0
# Processed by: cddbd v1.5.2PL0 Copyright (c) Steve Scherf et al.
# Submitted via: ExactAudioCopy v1.1
#
DISCID=440e3016
DTITLE=Various Artist - Fire and Fury of Bobby Robinson
DYEAR=2000
DGENRE=Soul
TTITLE0=Buster Brown - Sugar Baby
TTITLE1=Wilbert Harrison - Let's Stick Together
TTITLE2=King Curtis - Soul Twist
TTITLE3=Titus Turner - People Sure Act Funny
TTITLE4=Lee Dorsey - Behind The 8 Ball
TTITLE5=Champion Jack Dupree - Shake Baby Shake
TTITLE6=Tarheel Slim - Number Nine Train
TTITLE7=Dr. Horse - Jack That Cat Was Clean
TTITLE8=Jimmy Spruill - Hard Grind
TTITLE9=Gladys Knight and The Pips - Every Beat Of My Heart
TTITLE10=The Charts - Desiree
TTITLE11=The Rainbows - Mary Lee
TTITLE12=Choker Campbell - Walk Awhile
TTITLE13=Jackie and The Starlites - Valerie
TTITLE14=The Bop-Chords - Castles In The Sky
TTITLE15=The Love Notes - United
TTITLE16=Joe Haywood - Warm and Tender Love
TTITLE17=Johnny Acey - I Go Into Orbit
TTITLE18=June Bateman - Believe Me Darling
TTITLE19=Bobby Marchan - There's Something On Your Mind
TTITLE20=Don Gardner - Dee Dee Ford - Don't You Worry
TTITLE21=Elmore James - Make My Dreams Come True
EXTD=
EXTT0=
EXTT1=
EXTT2=
EXTT3=
EXTT4=
EXTT5=
EXTT6=
EXTT7=
EXTT8=
EXTT9=
EXTT10=
EXTT11=
EXTT12=
EXTT13=
EXTT14=
EXTT15=
EXTT16=
EXTT17=
EXTT18=
EXTT19=
EXTT20=
EXTT21=
PLAYORDER=
